<svg width="268" height="224" viewBox="0 0 268 224" fill="none" xmlns="http://www.w3.org/2000/svg">
<path d="M224.6 40.8897L224.599 40.8893C212.52 34.4388 196.469 25.7366 183.439 18.6475C176.923 15.1029 171.163 11.9614 167.031 9.70602C164.965 8.57834 163.307 7.67219 162.164 7.04796L160.852 6.33059L160.512 6.14463L160.425 6.09731L160.404 6.08538L160.398 6.08238L160.397 6.08163C160.396 6.08146 160.396 6.08138 160.636 5.64272L160.396 6.08138L160.362 6.06235L224.6 40.8897ZM224.6 40.8897C236.383 47.1593 246.676 53.9818 254.174 61.1846C261.678 68.3929 266.333 75.9326 266.953 83.6367C267.681 92.6475 267.549 100.267 267.315 113.852C267.151 123.286 266.938 135.597 266.929 153.25C266.929 178.148 258.564 190.625 247.695 197.383C238.643 203.012 227.818 204.714 218.359 206.201C216.384 206.512 214.469 206.813 212.642 207.139C195.17 210.255 184.147 213.682 174.802 216.587C173.137 217.105 171.526 217.606 169.94 218.086C159.478 221.252 150.141 223.5 134.08 223.5H133.899C117.843 223.479 108.506 221.231 98.0436 218.07C96.4616 217.592 94.8535 217.093 93.1925 216.577C83.8453 213.677 72.8218 210.256 55.3482 207.139C53.5132 206.811 51.5896 206.508 49.6062 206.196C40.148 204.706 29.3308 203.003 20.2842 197.379C9.41438 190.622 1.04909 178.148 1.04909 153.25C1.04909 135.502 0.839793 123.15 0.679562 113.693C0.45056 100.178 0.32178 92.5777 1.04747 83.5946L0.549153 83.5544L1.04747 83.5946C1.66806 75.9068 6.32203 68.3909 13.8264 61.19C21.325 53.9948 31.6181 47.1642 43.4027 40.8467C55.4873 34.4171 71.5407 25.7152 84.5721 18.6211C91.0883 15.0738 96.8493 11.9283 100.981 9.66961C103.047 8.54027 104.706 7.63263 105.848 7.00732L107.16 6.28867L107.501 6.10237L107.587 6.05495L107.609 6.04299L107.614 6.03999L107.616 6.03924C107.616 6.03907 107.616 6.03898 107.376 5.60052L107.616 6.03898L107.65 6.02046L107.68 5.99748L107.68 5.9973L107.681 5.99698L107.682 5.99595L107.694 5.98695C107.706 5.97835 107.725 5.9646 107.751 5.94605C107.803 5.90894 107.885 5.85262 107.998 5.77979C108.223 5.63415 108.571 5.42248 109.051 5.1666C110.01 4.65491 111.497 3.96607 113.586 3.27494C117.762 1.89289 124.347 0.5 133.932 0.5H134.08C143.665 0.5 150.25 1.90332 154.426 3.29569C156.514 3.99197 158.001 4.68596 158.96 5.20147C159.439 5.45926 159.787 5.67251 160.013 5.81924C160.125 5.89261 160.207 5.94936 160.26 5.98675C160.286 6.00544 160.305 6.01929 160.317 6.02796L160.329 6.03703L160.33 6.03807L160.331 6.03839L160.331 6.03858L224.6 40.8897ZM112.507 26.4258C112.486 26.4406 112.469 26.453 112.455 26.4627L112.393 26.4969L112.121 26.6459L111.071 27.2208C110.157 27.7211 108.83 28.4473 107.177 29.351C103.872 31.1584 99.2626 33.6758 94.0497 36.5155C83.6236 42.195 70.7834 49.1632 61.1228 54.3196L61.1227 54.3197C51.6605 59.3722 43.3452 64.8766 37.2621 70.7151C31.1849 76.548 27.2844 82.7645 26.7659 89.2413C26.1836 96.4665 26.2871 102.606 26.4703 113.474C26.5979 121.047 26.7643 130.914 26.7643 145.044C26.7643 165.193 33.5588 175.501 42.578 181.108C49.9913 185.716 58.8729 187.109 66.4398 188.297C68.0037 188.542 69.5114 188.778 70.9384 189.033C70.9385 189.033 70.9386 189.033 70.9387 189.033L73.282 189.465L73.3252 189.473L73.3692 189.473C74.0222 189.478 74.6726 189.548 75.3088 189.684L75.3165 189.685C80.905 190.782 88.6734 191.469 95.0715 189.894C98.2754 189.104 101.174 187.739 103.274 185.535C105.385 183.32 106.652 180.299 106.652 176.285V111.489C106.797 104.847 109.734 98.5143 114.846 93.8525C119.96 89.1885 126.843 86.5708 134.017 86.5708C141.192 86.5708 148.075 89.1885 153.189 93.8525C158.3 98.5142 161.238 104.847 161.383 111.488V176.285C161.383 180.299 162.649 183.32 164.759 185.535C166.858 187.739 169.756 189.104 172.959 189.894C179.356 191.469 187.124 190.782 192.718 189.685L192.727 189.683C193.359 189.548 194.005 189.478 194.654 189.473L194.698 189.473L194.741 189.465L197.085 189.033C197.085 189.033 197.086 189.033 197.087 189.032C198.523 188.777 200.04 188.539 201.614 188.293C209.178 187.109 218.047 185.722 225.45 181.123C234.468 175.522 241.259 165.213 241.259 145.044C241.259 131.149 241.422 121.376 241.547 113.856C241.732 102.754 241.835 96.5631 241.212 89.2732C240.694 82.7963 236.793 76.5798 230.716 70.7467C224.633 64.9082 216.318 59.4038 206.856 54.3513C197.223 49.1789 184.403 42.2029 173.99 36.5196C168.783 33.6779 164.179 31.1596 160.876 29.3516C159.225 28.4477 157.899 27.7213 156.986 27.221L155.936 26.646L155.665 26.4969L155.602 26.4626C155.589 26.4529 155.572 26.4405 155.55 26.4256C155.498 26.3889 155.422 26.3369 155.321 26.2719C155.12 26.1419 154.819 25.9597 154.412 25.743C153.598 25.3094 152.36 24.7379 150.639 24.1687C147.197 23.03 141.831 21.9021 134.08 21.9021H133.966C126.216 21.9021 120.852 23.03 117.413 24.1687C115.693 24.738 114.456 25.3095 113.643 25.7431C113.237 25.9599 112.937 26.142 112.735 26.2721C112.635 26.3371 112.559 26.3891 112.507 26.4258Z" fill="url(#paint0_linear)" stroke="white"/>
<defs>
<linearGradient id="paint0_linear" x1="134" y1="223.325" x2="134" y2="-0.717201" gradientUnits="userSpaceOnUse">
<stop stop-color="#9106FE"/>
<stop offset="1" stop-color="#3CCAE2"/>
</linearGradient>
</defs>
</svg>
